<?xml version="1.0" encoding="UTF-8" standalone="no"?>
<!DOCTYPE svg PUBLIC "-//W3C//DTD SVG 1.1//EN" "http://www.w3.org/Graphics/SVG/1.1/DTD/svg11.dtd">
<svg width="100%" height="100%" viewBox="0 0 2000 2000" version="1.1" xmlns="http://www.w3.org/2000/svg" xmlns:xlink="http://www.w3.org/1999/xlink" xml:space="preserve" xmlns:serif="http://www.serif.com/" style="fill-rule:evenodd;clip-rule:evenodd;stroke-linecap:round;stroke-linejoin:round;stroke-miterlimit:1.5;">
    <g id="medit">
        <g id="bank-statment-" serif:id="bank statment ">
            <circle cx="1000.81" cy="999.195" r="833.235" style="fill:#0b66a9;"/>
            <g>
                <path d="M1350.39,787.346l0,452.104c0,94.481 -76.706,171.188 -171.188,171.188l-342.376,-0c-94.481,-0 -171.188,-76.707 -171.188,-171.188l-0,-452.104c-0,-94.482 76.707,-171.188 171.188,-171.188l342.376,-0c94.482,-0 171.188,76.706 171.188,171.188Z" style="fill:#fff;"/>
                <path d="M856.654,1162.31l304.948,-0" style="fill:none;stroke:#0b66a9;stroke-width:70.83px;"/>
                <path d="M1037.95,616.158c0,-0 -38.39,243.384 100.684,289.018c-0,-0 84.511,38.648 211.751,13.529l9.173,-172.885l-34.768,-117.343l-139.798,-39.115l-125.312,9.417l-21.73,17.379Z" style="fill:#0b66a9;"/>
                <path d="M856.654,977.599l165.15,-0" style="fill:none;stroke:#0b66a9;stroke-width:70.83px;"/>
                <path d="M1103.38,644.292c0,-0 -40.563,230.051 146.607,222.518l79.968,-2.898l9.271,-1.738l-232.659,-232.659l-3.187,14.777Z" style="fill:#fff;"/>
            </g>
        </g>
    </g>
</svg>