<?xml version="1.0" encoding="UTF-8" standalone="no"?>
<!DOCTYPE svg PUBLIC "-//W3C//DTD SVG 1.1//EN" "http://www.w3.org/Graphics/SVG/1.1/DTD/svg11.dtd">
<svg width="100%" height="100%" viewBox="0 0 2000 2000" version="1.1" xmlns="http://www.w3.org/2000/svg" xmlns:xlink="http://www.w3.org/1999/xlink" xml:space="preserve" xmlns:serif="http://www.serif.com/" style="fill-rule:evenodd;clip-rule:evenodd;stroke-linejoin:round;stroke-miterlimit:2;">
    <g transform="matrix(13.679,0,0,13.679,-13219.3,-7788.77)">
        <circle cx="1039.5" cy="642.5" r="63.5" style="fill:rgb(9,102,168);"/>
    </g>
    <g transform="matrix(2.59491,0,0,2.39108,-1096.63,-1664.49)">
        <g>
            <g>
                <g transform="matrix(1.11514,0,0,1.11514,-93.0574,-117.389)">
                    <path d="M981,1052.42L981,1211.58C981,1263.14 942.428,1305 894.918,1305L721.082,1305C673.572,1305 635,1263.14 635,1211.58L635,1052.42C635,1000.86 673.572,959 721.082,959L894.918,959C942.428,959 981,1000.86 981,1052.42Z" style="fill:white;"/>
                </g>
                <g transform="matrix(0.968907,0,0,0.955375,-33.1602,306.54)">
                    <path d="M954,649.075L954,770.925C954,797.458 934.428,819 910.32,819L829.68,819C805.572,819 786,797.458 786,770.925L786,649.075C786,622.542 805.572,601 829.68,601L910.32,601C934.428,601 954,622.542 954,649.075Z" style="fill:rgb(9,102,168);"/>
                </g>
                <g transform="matrix(0.817529,0,0,0.906306,98.5385,321.85)">
                    <path d="M954,645.405L954,774.595C954,799.103 933.675,819 908.64,819L831.36,819C806.325,819 786,799.103 786,774.595L786,645.405C786,620.897 806.325,601 831.36,601L908.64,601C933.675,601 954,620.897 954,645.405Z" style="fill:white;"/>
                </g>
                <g transform="matrix(1.59697,0,0,0.639073,32.6538,500.094)">
                    <path d="M565,1015.32L565,1021.68C565,1034.55 561.147,1045 556.401,1045L414.599,1045C409.853,1045 406,1034.55 406,1021.68L406,1015.32C406,1002.45 409.853,992 414.599,992L556.401,992C561.147,992 565,1002.45 565,1015.32Z" style="fill:rgb(9,102,168);"/>
                </g>
                <g transform="matrix(0.658009,0,0,0.643126,413.87,606.928)">
                    <path d="M565,1015.32L565,1021.68C565,1034.55 555.589,1045 543.998,1045L427.002,1045C415.411,1045 406,1034.55 406,1021.68L406,1015.32C406,1002.45 415.411,992 427.002,992L543.998,992C555.589,992 565,1002.45 565,1015.32Z" style="fill:rgb(9,102,168);"/>
                </g>
                <g transform="matrix(0.450531,0,0,0.488936,364.506,624.553)">
                    <g transform="matrix(1,0,0,1,1000,1337.38)">
                        <path d="M10.72,0.997C7.812,0.997 5.506,0.208 3.802,-1.371C2.098,-2.95 1.247,-4.986 1.247,-7.479C1.247,-9.141 1.621,-10.845 2.368,-12.59L32.286,-78.159C33.698,-81.4 35.568,-83.914 37.895,-85.7C40.222,-87.487 43.255,-88.38 46.995,-88.38C50.402,-88.38 53.29,-87.549 55.658,-85.887C58.027,-84.225 60.042,-81.566 61.704,-77.909L90.998,-12.964C91.414,-12.133 91.705,-11.281 91.871,-10.409C92.037,-9.536 92.12,-8.726 92.12,-7.978C92.12,-5.485 91.289,-3.345 89.627,-1.558C87.965,0.229 85.555,1.122 82.397,1.122C79.073,1.122 76.58,0.332 74.918,-1.247C73.256,-2.826 71.801,-5.194 70.555,-8.352L67.438,-16.205L25.804,-16.205L22.812,-8.726C21.565,-5.568 19.986,-3.158 18.075,-1.496C16.164,0.166 13.712,0.997 10.72,0.997ZM60.458,-33.782L46.995,-67.314L33.034,-33.782L60.458,-33.782Z" style="fill:rgb(9,102,168);fill-rule:nonzero;"/>
                    </g>
                    <g transform="matrix(1,0,0,1,1082.89,1337.38)">
                        <path d="M48.989,-9.598C48.989,-2.452 45.582,1.122 38.768,1.122C31.953,1.122 28.546,-2.452 28.546,-9.598L28.546,-69.059L12.59,-69.059C5.526,-69.059 1.994,-72.092 1.994,-78.159C1.994,-84.225 5.526,-87.259 12.59,-87.259L64.945,-87.259C72.092,-87.259 75.666,-84.225 75.666,-78.159C75.666,-72.092 72.092,-69.059 64.945,-69.059L48.989,-69.059L48.989,-9.598Z" style="fill:rgb(9,102,168);fill-rule:nonzero;"/>
                        <path d="M97.106,1.122C93.865,1.122 91.372,0.208 89.627,-1.621C87.882,-3.449 87.009,-6.108 87.009,-9.598L87.009,-76.912C87.009,-80.818 88.069,-83.706 90.188,-85.576C92.307,-87.445 94.779,-88.38 97.605,-88.38C99.849,-88.38 102.051,-87.882 104.212,-86.885C106.372,-85.887 108.159,-84.433 109.572,-82.522L135.5,-46.995L161.428,-82.522C164.337,-86.427 168.076,-88.38 172.647,-88.38C175.473,-88.38 177.945,-87.466 180.064,-85.638C182.183,-83.81 183.243,-80.901 183.243,-76.912L183.243,-9.598C183.243,-2.452 179.836,1.122 173.021,1.122C166.207,1.122 162.799,-2.452 162.799,-9.598L162.799,-54.599L144.6,-29.294C142.938,-26.967 141.359,-25.284 139.863,-24.245C138.367,-23.207 136.83,-22.687 135.251,-22.687C133.589,-22.687 132.01,-23.186 130.514,-24.183C129.018,-25.18 127.439,-26.842 125.777,-29.169L107.328,-54.848L107.328,-9.598C107.328,-2.452 103.921,1.122 97.106,1.122Z" style="fill:rgb(9,102,168);fill-rule:nonzero;"/>
                    </g>
                </g>
            </g>
            <g transform="matrix(0.411065,0,0,0.446106,398.725,682.009)">
                <circle cx="1000" cy="804" r="27" style="fill:rgb(9,102,168);"/>
            </g>
        </g>
    </g>
</svg>
