<?xml version="1.0" encoding="UTF-8" standalone="no"?>
<!DOCTYPE svg PUBLIC "-//W3C//DTD SVG 1.1//EN" "http://www.w3.org/Graphics/SVG/1.1/DTD/svg11.dtd">
<svg width="100%" height="100%" viewBox="0 0 1000 1000" version="1.1" xmlns="http://www.w3.org/2000/svg" xmlns:xlink="http://www.w3.org/1999/xlink" xml:space="preserve" xmlns:serif="http://www.serif.com/" style="fill-rule:evenodd;clip-rule:evenodd;stroke-linejoin:round;stroke-miterlimit:2;">
    <g transform="matrix(1.46941,0,0,1.46941,-580.699,-234.707)">
        <g transform="matrix(0.550002,-0.044538,0.044538,0.550002,388.371,220.64)">
            <path d="M809,306.743L809,786.257C809,830.268 773.268,866 729.257,866L419.668,866C375.657,866 339.925,830.268 339.925,786.257L339.925,306.743C339.925,262.732 375.657,227 419.668,227L729.257,227C773.268,227 809,262.732 809,306.743Z" style="fill:rgb(147,193,226);"/>
        </g>
        <g transform="matrix(0.551802,0,0,0.551802,418.473,198.44)">
            <g transform="matrix(0.983435,0.18126,-0.18126,0.983435,108.575,-95.0746)">
                <path d="M809,306.743L809,786.257C809,830.268 773.268,866 729.257,866L419.668,866C375.657,866 339.925,830.268 339.925,786.257L339.925,306.743C339.925,262.732 375.657,227 419.668,227L729.257,227C773.268,227 809,262.732 809,306.743Z" style="fill:rgb(9,101,168);"/>
            </g>
            <g transform="matrix(3.01371,0,0,2.81426,-5137.51,-2211.33)">
                <path d="M1940.77,943.694C1921.48,966.101 1903.97,1002.6 1896.7,1018.76C1894.48,1023.71 1889.56,1026.89 1884.13,1026.89C1879.58,1026.89 1875.33,1024.65 1872.76,1020.9L1850.19,987.953C1846.45,982.491 1848.55,974.977 1854.57,972.237C1858.44,970.48 1862.98,971.187 1866.13,974.036L1883.74,989.973C1883.74,989.973 1902.81,956.653 1931.91,934.337C1933.81,932.886 1936.35,932.604 1938.52,933.591C1942.44,935.372 1943.58,940.428 1940.77,943.694Z" style="fill:rgb(249,250,255);fill-rule:nonzero;"/>
            </g>
        </g>
    </g>
</svg>
