<?xml version="1.0" encoding="UTF-8" standalone="no"?>
<!DOCTYPE svg PUBLIC "-//W3C//DTD SVG 1.1//EN" "http://www.w3.org/Graphics/SVG/1.1/DTD/svg11.dtd">
<svg width="100%" height="100%" viewBox="0 0 2000 2000" version="1.1" xmlns="http://www.w3.org/2000/svg" xmlns:xlink="http://www.w3.org/1999/xlink" xml:space="preserve" xmlns:serif="http://www.serif.com/" style="fill-rule:evenodd;clip-rule:evenodd;stroke-linecap:round;stroke-linejoin:round;stroke-miterlimit:1.5;">
    <g id="medit">
        <g id="bank-statment-" serif:id="bank statment ">
            <circle cx="1000.81" cy="999.195" r="833.235" style="fill:#0b66a9;"/>
            <g>
                <path d="M1417.5,532.629l-834.992,0c-75.458,0 -136.85,61.392 -136.85,136.854l0,521.863c0,64.271 44.542,118.312 104.371,132.929l0,6.242c0,36.55 14.238,70.916 40.088,96.766c25.854,25.85 60.225,40.088 96.766,40.088l626.242,-0c36.542,-0 70.912,-14.238 96.779,-40.088c25.838,-25.85 40.075,-60.216 40.075,-96.766l-0,-6.242c59.829,-14.625 104.371,-68.658 104.371,-132.929l-0,-521.863c-0,-75.462 -61.392,-136.854 -136.85,-136.854Zm-906.879,238.917l978.766,-0l0,74.208l-978.766,0l-0,-74.208Zm71.887,-173.954l834.992,-0c39.633,-0 71.887,32.254 71.887,71.891l0,37.1l-978.766,0l-0,-37.1c-0,-39.637 32.254,-71.891 71.887,-71.891Zm781.463,783.745c-13.592,13.584 -31.65,21.071 -50.846,21.071l-626.242,0c-19.196,0 -37.254,-7.487 -50.837,-21.062c-13.575,-13.575 -21.054,-31.625 -21.054,-50.829l-0,-2.309l770.025,0l-0,2.309c-0,19.204 -7.48,37.254 -21.046,50.82Zm53.529,-118.1l-834.992,0c-39.633,0 -71.887,-32.245 -71.887,-71.891l-0,-280.629l978.766,-0l0,280.629c0,39.646 -32.254,71.891 -71.887,71.891Z" style="fill:#fff;fill-rule:nonzero;"/>
                <path d="M582.504,1084.67l208.754,-0c17.934,-0 32.48,-14.542 32.48,-32.48c-0,-17.941 -14.546,-32.483 -32.48,-32.483l-208.754,0c-17.937,0 -32.479,14.542 -32.479,32.483c0,17.938 14.542,32.48 32.479,32.48Z" style="fill:#fff;fill-rule:nonzero;"/>
                <path d="M895.629,1124.08l-313.125,-0c-17.937,-0 -32.479,14.542 -32.479,32.483c0,17.938 14.542,32.479 32.479,32.479l313.125,0c17.942,0 32.479,-14.541 32.479,-32.479c0,-17.941 -14.537,-32.483 -32.479,-32.483Z" style="fill:#fff;fill-rule:nonzero;"/>
                <path d="M1359.29,1074.89c-8.125,-2.962 -16.713,-4.445 -25.363,-4.387c-27.966,-0 -47.721,14.087 -47.862,34.312c-0.171,14.859 14.037,23.234 24.787,28.196c11.034,5.104 14.721,8.321 14.684,12.884c-0.067,6.937 -8.809,10.087 -16.938,10.087c-11.171,0 -17.271,-1.558 -26.658,-5.454l-3.475,-1.629l-3.971,23.287c6.8,2.829 19.054,5.259 31.708,5.471c29.738,0 49.175,-14.004 49.4,-35.521c0.246,-11.871 -7.446,-20.837 -23.633,-28.25c-9.842,-4.804 -15.942,-8.021 -15.942,-12.9c0,-4.316 5.229,-8.933 16.154,-8.933c7.271,-0.175 14.496,1.192 21.2,4.004l2.625,1.171l3.967,-22.496l-0.683,0.158Zm72.579,-2.5l-21.85,0c-6.8,0 -11.921,1.871 -14.892,8.617l-42.025,95.196l29.734,-0l5.945,-15.608l36.288,0.033c0.858,3.654 3.479,15.575 3.479,15.575l26.221,-0l-22.9,-103.813Zm-186.025,-0.874l28.337,-0l-17.725,103.866l-28.3,0l17.688,-103.9l-0,0.034Zm-71.929,57.25l2.937,14.42l27.688,-70.795l30.012,-0l-44.591,103.675l-29.946,-0l-24.471,-87.788c-0.396,-1.446 -1.329,-2.692 -2.604,-3.479c-8.821,-4.554 -18.167,-8.013 -27.829,-10.296l0.383,-2.183l45.608,-0c6.188,0.246 11.171,2.183 12.829,8.791l9.967,47.705l0,-0.05l0.017,-0Zm222.996,10.591l11.291,-29.054c-0.142,0.317 2.325,-5.996 3.758,-9.892l1.938,8.967l6.558,29.963l-23.566,-0l-0,0.016l0.02,0Z" style="fill:#fff;fill-rule:nonzero;"/>
            </g>
        </g>
    </g>
</svg>