<?xml version="1.0" encoding="UTF-8" standalone="no"?><!DOCTYPE svg PUBLIC "-//W3C//DTD SVG 1.1//EN" "http://www.w3.org/Graphics/SVG/1.1/DTD/svg11.dtd"><svg width="100%" height="100%" viewBox="0 0 2000 2000" version="1.1" xmlns="http://www.w3.org/2000/svg" xmlns:xlink="http://www.w3.org/1999/xlink" xml:space="preserve" xmlns:serif="http://www.serif.com/" style="fill-rule:evenodd;clip-rule:evenodd;stroke-linejoin:round;stroke-miterlimit:2;"><clipPath id="_clip1"><rect id="linked-3.svg" serif:id="linked 3.svg" x="518.524" y="518.524" width="962.953" height="962.953"/></clipPath><g clip-path="url(#_clip1)"><g><g><g><g><g><g><path d="M1372.24,903.253l-431.372,0c-16.1,0 -29.34,-13.09 -29.34,-29.34l-0,-303.33c-0,-16.249 13.24,-29.34 29.34,-29.34l431.372,0c16.1,0 29.34,13.091 29.34,29.34l0,303.33c0,16.25 -13.09,29.34 -29.34,29.34Zm-431.372,-332.82l-0.151,303.48l431.523,0.151c0,-0 0.151,-0 0.151,-0.151l-0,-303.33l-431.523,-0.15Z" style="fill:#0a66a9;fill-rule:nonzero;"/></g><g><path d="M1094.34,952.003c-1.655,-0 -3.31,-0.301 -4.965,-0.903c-7.523,-2.708 -11.435,-11.134 -8.727,-18.657l17.755,-48.75c2.708,-7.523 11.134,-11.435 18.657,-8.726c7.523,2.708 11.435,11.134 8.727,18.657l-17.755,48.749c-2.106,6.019 -7.673,9.63 -13.692,9.63Z" style="fill:#0a66a9;fill-rule:nonzero;"/></g><g><path d="M1218.62,952.003c-6.018,-0 -11.585,-3.611 -13.692,-9.63l-17.754,-48.749c-2.708,-7.523 1.204,-15.949 8.727,-18.657c7.523,-2.709 15.949,1.203 18.657,8.726l17.754,48.75c2.709,7.523 -1.203,15.949 -8.726,18.657c-1.505,0.602 -3.311,0.903 -4.966,0.903Z" style="fill:#0a66a9;fill-rule:nonzero;"/></g><g><path d="M1254.88,984.954l-196.653,-0c-8.125,-0 -14.595,-6.47 -14.595,-14.595l-0,-32.951c-0,-8.125 6.47,-14.595 14.595,-14.595l196.653,0c8.124,0 14.594,6.47 14.594,14.595l0,32.951c0,8.125 -6.47,14.595 -14.594,14.595Zm-182.059,-29.19l167.464,0l-0,-3.761l-167.464,-0l0,3.761Z" style="fill:#0a66a9;fill-rule:nonzero;"/></g></g><g><path d="M1386.99,832.537l-460.864,-0c-8.124,-0 -14.594,-6.47 -14.594,-14.595c-0,-8.125 6.47,-14.595 14.594,-14.595l460.864,0c8.124,0 14.594,6.47 14.594,14.595c0,8.125 -6.47,14.595 -14.594,14.595Z" style="fill:#0a66a9;fill-rule:nonzero;"/></g></g><g><path d="M1165.96,868.497l-18.808,-0c-8.125,-0 -14.595,-6.47 -14.595,-14.595c0,-8.125 6.47,-14.595 14.595,-14.595l18.808,0c8.125,0 14.595,6.47 14.595,14.595c-0,7.974 -6.621,14.595 -14.595,14.595Z" style="fill:#0a66a9;fill-rule:nonzero;"/></g></g><g><g><g><path d="M1405.19,1458.76l-497.274,-0c-42.13,-0 -76.284,-34.155 -76.284,-76.284l-0,-3.16c-0,-8.125 6.47,-14.595 14.595,-14.595l620.653,0c8.124,0 14.594,6.47 14.594,14.595l0,3.16c0,42.129 -34.154,76.284 -76.284,76.284Zm-543.015,-64.849c5.116,20.463 23.623,35.659 45.741,35.659l497.274,0c21.968,0 40.625,-15.196 45.741,-35.659l-588.756,-0Z" style="fill:#0a66a9;fill-rule:nonzero;"/></g><g><path d="M1440.4,1393.91c-8.125,-0 -14.594,-6.47 -14.594,-14.595l-0,-329.811c-0,-4.514 -3.611,-8.125 -8.125,-8.125l-522.252,-0c-4.513,-0 -8.125,3.611 -8.125,8.125l0,329.811c0,8.125 -6.469,14.595 -14.594,14.595c-8.125,-0 -14.595,-6.47 -14.595,-14.595l-0,-329.811c-0,-20.613 16.701,-37.315 37.314,-37.315l522.252,0c20.613,0 37.314,16.702 37.314,37.315l0,329.811c0,8.125 -6.47,14.595 -14.595,14.595Z" style="fill:#0a66a9;fill-rule:nonzero;"/></g><g><path d="M1235.32,1426.41l-157.533,0c-6.621,0 -12.338,-4.363 -13.993,-10.682l-9.028,-32.35c-2.107,-7.824 2.407,-15.798 10.231,-17.904c7.674,-2.107 15.799,2.407 17.905,10.08l6.019,21.817l135.415,0l6.018,-21.817c2.107,-7.823 10.232,-12.337 17.905,-10.08c7.824,2.106 12.338,10.231 10.081,17.904l-9.028,32.35c-1.655,6.319 -7.372,10.682 -13.992,10.682Z" style="fill:#0a66a9;fill-rule:nonzero;"/></g></g><g><path d="M1394.36,1393.91c-8.125,-0 -14.595,-6.47 -14.595,-14.595l0,-291.143l-446.418,0l-0,291.143c-0,8.125 -6.47,14.595 -14.595,14.595c-8.125,-0 -14.595,-6.47 -14.595,-14.595l0,-305.737c0,-8.125 6.47,-14.595 14.595,-14.595l475.458,-0c8.125,-0 14.594,6.47 14.594,14.595l0,305.737c0.151,8.125 -6.469,14.595 -14.444,14.595Z" style="fill:#0a66a9;fill-rule:nonzero;"/></g></g><g><g><g><path d="M728.417,1005.72l-161.144,-0c-26.932,-0 -48.749,-21.817 -48.749,-48.599l-0,-297.613c-0,-26.782 21.817,-48.749 48.749,-48.749l161.295,-0c26.782,-0 48.749,21.816 48.749,48.749l0,297.462c-0.15,26.933 -21.967,48.75 -48.9,48.75Zm-161.144,-365.622c-10.683,0 -19.56,8.727 -19.56,19.56l0,297.463c0,10.833 8.727,19.559 19.56,19.559l161.295,0c10.683,0 19.56,-8.726 19.56,-19.559l-0,-297.613c-0,-10.833 -8.727,-19.56 -19.56,-19.56l-161.295,0l0,0.15Z" style="fill:#0a66a9;fill-rule:nonzero;"/></g><g><g><path d="M762.572,700.281l-229.454,0c-8.124,0 -14.594,-6.62 -14.594,-14.595c-0,-8.125 6.47,-14.594 14.594,-14.594l229.454,-0c8.125,-0 14.595,6.469 14.595,14.594c-0,7.975 -6.47,14.595 -14.595,14.595Z" style="fill:#0a66a9;fill-rule:nonzero;"/></g><g><path d="M762.572,945.533l-229.454,-0c-8.124,-0 -14.594,-6.47 -14.594,-14.595c-0,-8.125 6.47,-14.595 14.594,-14.595l229.454,0c8.125,0 14.595,6.47 14.595,14.595c-0,8.125 -6.47,14.595 -14.595,14.595Z" style="fill:#0a66a9;fill-rule:nonzero;"/></g></g></g><g><path d="M654.39,975.926l-13.09,0c-8.125,0 -14.595,-6.47 -14.595,-14.595c0,-8.124 6.47,-14.594 14.595,-14.594l13.09,-0c8.125,-0 14.595,6.47 14.595,14.594c0,7.975 -6.47,14.595 -14.595,14.595Z" style="fill:#0a66a9;fill-rule:nonzero;"/></g><g><path d="M654.39,670.189l-13.09,-0c-8.125,-0 -14.595,-6.47 -14.595,-14.595c0,-8.125 6.47,-14.595 14.595,-14.595l13.09,0c8.125,0 14.595,6.47 14.595,14.595c0,7.974 -6.47,14.595 -14.595,14.595Z" style="fill:#0a66a9;fill-rule:nonzero;"/></g></g><g><path d="M887.906,808.764l-87.267,-0c-8.125,-0 -14.595,-6.47 -14.595,-14.595c-0,-8.125 6.47,-14.595 14.595,-14.595l87.267,0c8.125,0 14.595,6.47 14.595,14.595c0,8.125 -6.47,14.595 -14.595,14.595Z" style="fill:#0a66a9;fill-rule:nonzero;"/></g><g><path d="M844.273,1249.01l-202.973,-0c-8.125,-0 -14.595,-6.47 -14.595,-14.595l0,-207.637c0,-8.125 6.47,-14.595 14.595,-14.595c8.125,0 14.595,6.47 14.595,14.595l-0,193.042l188.378,0c8.124,0 14.594,6.47 14.594,14.595c0,8.125 -6.62,14.595 -14.594,14.595Z" style="fill:#0a66a9;fill-rule:nonzero;"/></g></g></g></g></svg>