<?xml version="1.0" encoding="UTF-8" standalone="no"?><!DOCTYPE svg PUBLIC "-//W3C//DTD SVG 1.1//EN" "http://www.w3.org/Graphics/SVG/1.1/DTD/svg11.dtd"><svg width="100%" height="100%" viewBox="0 0 2000 2000" version="1.1" xmlns="http://www.w3.org/2000/svg" xmlns:xlink="http://www.w3.org/1999/xlink" xml:space="preserve" xmlns:serif="http://www.serif.com/" style="fill-rule:evenodd;clip-rule:evenodd;stroke-linecap:round;stroke-linejoin:round;stroke-miterlimit:2;"><g><path d="M1397.77,945.878l-135.294,-0l0,-232.707c0,-144.727 -117.744,-262.471 -262.471,-262.471c-144.727,-0 -262.471,117.744 -262.471,262.471l-0,232.707l-135.294,-0l0,-232.707c0,-219.329 178.439,-397.765 397.765,-397.765c219.326,0 397.765,178.436 397.765,397.765l-0,232.707Z" style="fill:#3f8eda;fill-rule:nonzero;"/><path d="M1397.77,713.174l-0,232.707l-135.297,-0l0,-99.392c32.643,-38.201 112.223,-158.017 5.208,-324.504c-110.8,-172.332 -304.895,-178.007 -464.224,-154.525c57.989,-33.112 125.112,-52.054 196.542,-52.054c219.322,0 397.771,178.443 397.771,397.768Z" style="fill:#0e4a83;fill-rule:nonzero;"/><path d="M1000,450.703c-144.721,-0 -262.474,117.747 -262.474,262.471l-0,232.707l-101.222,-0l-0,-48.562c104.747,0 -34.918,-446.616 363.696,-446.616Z" style="fill:#0e4a83;fill-rule:nonzero;"/><path d="M1421.24,1684.58l-842.47,-0c-33.365,-0 -60.411,-27.046 -60.411,-60.411l0,-666.589c0,-33.365 27.046,-60.411 60.411,-60.411l842.47,0c33.365,0 60.411,27.046 60.411,60.411l-0,666.589c-0,33.365 -27.046,60.411 -60.411,60.411Z" style="fill:#2178be;fill-rule:nonzero;"/><path d="M1481.65,955.368l-0,671.032c-0,32.123 -26.071,58.194 -58.194,58.194l-846.916,-0c-32.123,-0 -58.194,-26.071 -58.194,-58.194l0,-91.562c14.722,27.583 47.719,69.512 112.135,69.512l485.349,-0c107.973,-0 195.491,-87.524 195.491,-195.497l-0,-225.375c-0,-142.51 -110.97,-266.459 -249.408,-286.304l361.543,0c32.123,0 58.194,26.043 58.194,58.194Z" style="fill:#1267a9;fill-rule:nonzero;"/><path d="M1097.28,1414.97c4.328,27.194 -16.667,51.793 -44.188,51.793l-106.178,0c-27.521,0 -48.516,-24.599 -44.188,-51.793l15.1,-94.761c-22.73,-21.7 -36.881,-52.274 -36.881,-86.152c-0,-65.755 53.303,-119.058 119.058,-119.058c65.754,-0 119.058,53.303 119.058,119.058c0,33.878 -14.151,64.452 -36.881,86.152l15.1,94.761Z" style="fill:#004983;fill-rule:nonzero;"/><rect x="566.475" y="967.152" width="90.197" height="421.887" style="fill:#2795ff;fill-rule:nonzero;"/><rect x="566.475" y="1432.68" width="90.197" height="69.829" style="fill:#2795ff;fill-rule:nonzero;"/><path d="M924.815,1255.26c0,33.867 14.143,64.447 36.893,86.155l-15.099,94.764c-1.776,11.143 0.7,21.851 6.137,30.58l-5.844,0c-27.5,0 -48.504,-24.587 -44.17,-51.793l15.103,-94.764c-22.754,-21.703 -36.896,-52.253 -36.896,-86.152c-0,-65.758 53.304,-119.058 119.061,-119.058c27.351,-0 52.546,9.224 72.653,24.729c-9.224,-2.296 -18.854,-3.519 -28.776,-3.519c-65.758,-0 -119.062,53.304 -119.062,119.058Z" style="fill:#1170bd;fill-rule:nonzero;"/><path d="M676.791,676.193c11.59,-70.104 46.973,-181.317 154.454,-247.314l-17.456,-34.914c-0,-0 -152.04,77.226 -179.186,282.228l42.188,0Z" style="fill:#fff;fill-rule:nonzero;"/><path d="M631.683,705.287c-0.786,11.285 -1.2,22.92 -1.2,34.915l40.733,0c-0,0 -0.369,-13.336 1.742,-34.915l-41.275,0Z" style="fill:#fff;fill-rule:nonzero;"/><path d="M737.526,897.174l-0,-184c-0,-144.724 117.753,-262.471 262.474,-262.471c144.721,-0 262.474,117.747 262.474,262.471l0,184" style="fill:none;stroke:#0e4a83;stroke-width:12.5px;"/><path d="M602.232,897.174l0,-184c0,-219.325 178.445,-397.768 397.768,-397.768c219.322,0 397.771,178.443 397.771,397.768l-0,184" style="fill:none;stroke:#0e4a83;stroke-width:12.5px;"/><path d="M1421.24,1684.58l-842.47,-0c-33.365,-0 -60.411,-27.046 -60.411,-60.411l0,-666.589c0,-33.365 27.046,-60.411 60.411,-60.411l842.47,0c33.365,0 60.411,27.046 60.411,60.411l-0,666.589c-0,33.365 -27.046,60.411 -60.411,60.411Z" style="fill:none;stroke:#0e4a83;stroke-width:29.17px;"/><path d="M1097.28,1414.97c4.328,27.194 -16.667,51.793 -44.188,51.793l-106.178,0c-27.521,0 -48.516,-24.599 -44.188,-51.793l15.1,-94.761c-22.73,-21.7 -36.881,-52.274 -36.881,-86.152c-0,-65.755 53.303,-119.058 119.058,-119.058c65.754,-0 119.058,53.303 119.058,119.058c0,33.878 -14.151,64.452 -36.881,86.152l15.1,94.761Z" style="fill:none;stroke:#004984;stroke-width:29.17px;"/></g></svg>