<?xml version="1.0" encoding="UTF-8" standalone="no"?>
<!DOCTYPE svg PUBLIC "-//W3C//DTD SVG 1.1//EN" "http://www.w3.org/Graphics/SVG/1.1/DTD/svg11.dtd">
<svg width="100%" height="100%" viewBox="0 0 2000 2000" version="1.1" xmlns="http://www.w3.org/2000/svg" xmlns:xlink="http://www.w3.org/1999/xlink" xml:space="preserve" xmlns:serif="http://www.serif.com/" style="fill-rule:evenodd;clip-rule:evenodd;stroke-linejoin:round;stroke-miterlimit:2;">
    <g transform="matrix(1.04351,0,0,1.04351,-96.5094,-43.5094)">
        <g transform="matrix(4.29025,0,0,4.29025,21.8261,21.824)">
            <path d="M234.384,296.585L183,296.585C174.164,296.585 167,289.421 167,280.585L167,157.556C167,148.719 174.164,141.556 183,141.556L275.537,141.556C284.373,141.556 291.537,148.719 291.537,157.556L291.537,185.387C283.009,181.025 273.347,178.563 263.11,178.563C250.09,178.563 238,182.544 227.99,189.356L182.9,189.356C180.194,189.356 178,191.55 178,194.256C178,196.962 180.194,199.156 182.9,199.156L216.741,199.156C211.98,204.42 208.104,210.498 205.345,217.156L182.9,217.156C180.194,217.156 178,219.35 178,222.056C178,224.762 180.194,226.956 182.9,226.956L202.209,226.956C201.162,231.49 200.61,236.211 200.61,241.063C200.61,242.371 200.65,243.668 200.729,244.956L182.9,244.956C180.194,244.956 178,247.15 178,249.856C178,252.562 180.194,254.756 182.9,254.756L202.115,254.756C203.552,261.184 205.981,267.243 209.23,272.756L182.9,272.756C180.194,272.756 178,274.95 178,277.656C178,280.362 180.194,282.556 182.9,282.556L216.37,282.556C221.441,288.266 227.543,293.038 234.384,296.585Z" style="fill:white;"/>
            <g>
                <path d="M182.9,161.556L223.1,161.556C225.806,161.556 228,163.75 228,166.456C228,169.162 225.806,171.356 223.1,171.356L182.9,171.356C180.194,171.356 178,169.162 178,166.456C178,163.75 180.194,161.556 182.9,161.556Z" style="fill:rgb(58,88,138);fill-rule:nonzero;"/>
                <path d="M182.9,189.356L273.1,189.356C275.807,189.356 278,191.55 278,194.256C278,196.962 275.807,199.156 273.1,199.156L182.9,199.156C180.194,199.156 178,196.962 178,194.256C178,191.55 180.194,189.356 182.9,189.356Z" style="fill:rgb(133,152,185);fill-rule:nonzero;"/>
                <path d="M182.9,217.156L273.1,217.156C275.807,217.156 278,219.35 278,222.056C278,224.762 275.807,226.956 273.1,226.956L182.9,226.956C180.194,226.956 178,224.762 178,222.056C178,219.35 180.194,217.156 182.9,217.156Z" style="fill:rgb(133,152,185);fill-rule:nonzero;"/>
                <path d="M182.9,244.956L273.1,244.956C275.807,244.956 278,247.15 278,249.856C278,252.562 275.807,254.756 273.1,254.756L182.9,254.756C180.194,254.756 178,252.562 178,249.856C178,247.15 180.194,244.956 182.9,244.956Z" style="fill:rgb(133,152,185);fill-rule:nonzero;"/>
                <path d="M182.9,272.756L273.1,272.756C275.807,272.756 278,274.95 278,277.656C278,280.362 275.807,282.556 273.1,282.556L182.9,282.556C180.194,282.556 178,280.362 178,277.656C178,274.95 180.194,272.756 182.9,272.756Z" style="fill:rgb(133,152,185);fill-rule:nonzero;"/>
                <path d="M366.15,124.424L306.069,124.424C303.27,124.424 301,126.812 301,129.759L301,159.478C301,162.424 303.27,164.813 306.069,164.813L366.15,164.813C368.95,164.813 371.219,162.424 371.219,159.478L371.219,129.759C371.219,126.812 368.95,124.424 366.15,124.424Z" style="fill:white;fill-rule:nonzero;"/>
                <path d="M316,151C319.314,151 322,148.314 322,145C322,141.686 319.314,139 316,139C312.686,139 310,141.686 310,145C310,148.314 312.686,151 316,151Z" style="fill:rgb(58,88,138);fill-opacity:0.8;fill-rule:nonzero;"/>
                <path d="M336,139L356,139C359.313,139 362,141.687 362,145C362,148.313 359.313,151 356,151L336,151C332.687,151 330,148.313 330,145C330,141.687 332.687,139 336,139Z" style="fill:rgb(169,184,208);fill-rule:nonzero;"/>
                <path d="M316.419,241.063C316.419,270.287 292.727,293.977 263.505,293.977C234.282,293.977 210.592,270.287 210.592,241.063C210.592,211.84 234.282,188.15 263.505,188.15C292.727,188.15 316.419,211.84 316.419,241.063ZM263.11,303.563C275.989,303.563 287.959,299.667 297.905,292.989L338.603,331.841L353.365,314.716L314.092,277.226C321.345,267.018 325.61,254.539 325.61,241.063C325.61,206.546 297.627,178.563 263.11,178.563C228.592,178.563 200.61,206.546 200.61,241.063C200.61,275.581 228.592,303.563 263.11,303.563Z" style="fill:#0a66a9;"/>
            </g>
            <path d="M290.335,286.68C291.11,284.802 291.537,282.743 291.537,280.585L291.537,196.177C306.481,205.529 316.419,222.135 316.419,241.063C316.419,260.495 305.945,277.479 290.335,286.68Z" style="fill:url(#_Linear1);"/>
            <path d="M263.505,293.977C251.098,293.977 239.689,289.707 230.666,282.556L273.1,282.556C275.807,282.556 278,280.362 278,277.656C278,274.95 275.807,272.756 273.1,272.756L221.129,272.756C217.148,267.442 214.143,261.351 212.381,254.756L273.1,254.756C275.807,254.756 278,252.562 278,249.856C278,247.15 275.807,244.956 273.1,244.956L210.733,244.956C210.639,243.671 210.592,242.372 210.592,241.063C210.592,236.178 211.254,231.447 212.493,226.956L273.1,226.956C275.807,226.956 278,224.762 278,222.056C278,219.35 275.807,217.156 273.1,217.156L216.288,217.156C219.868,210.098 224.983,203.953 231.196,199.156L273.1,199.156C275.807,199.156 278,196.962 278,194.256C278,191.55 275.807,189.356 273.1,189.356L252.22,189.356C255.855,188.566 259.633,188.15 263.505,188.15C273.8,188.15 283.409,191.091 291.537,196.177L291.537,280.585C291.537,282.743 291.11,284.802 290.335,286.68C282.468,291.317 273.297,293.977 263.505,293.977Z" style="fill:url(#_Linear2);"/>
            <g>
                <path d="M273.1,199.156L231.196,199.156C237.288,194.453 244.434,191.047 252.22,189.356L273.1,189.356C275.807,189.356 278,191.55 278,194.256C278,196.962 275.807,199.156 273.1,199.156Z" style="fill:rgb(209,226,254);fill-opacity:0.76;fill-rule:nonzero;"/>
                <path d="M273.1,226.956L212.493,226.956C213.436,223.539 214.714,220.259 216.288,217.156L273.1,217.156C275.807,217.156 278,219.35 278,222.056C278,224.762 275.807,226.956 273.1,226.956Z" style="fill:rgb(209,226,254);fill-opacity:0.76;fill-rule:nonzero;"/>
                <path d="M273.1,254.756L212.381,254.756C211.536,251.595 210.977,248.32 210.733,244.956L273.1,244.956C275.807,244.956 278,247.15 278,249.856C278,252.562 275.807,254.756 273.1,254.756Z" style="fill:rgb(209,226,254);fill-opacity:0.76;fill-rule:nonzero;"/>
                <path d="M273.1,282.556L230.666,282.556C227.081,279.715 223.873,276.42 221.129,272.756L273.1,272.756C275.807,272.756 278,274.95 278,277.656C278,280.362 275.807,282.556 273.1,282.556Z" style="fill:rgb(209,226,254);fill-opacity:0.76;fill-rule:nonzero;"/>
                <path d="M263.5,295C233.4,295 209,270.823 209,241C209,211.177 233.4,187 263.5,187C293.6,187 318,211.177 318,241C318,270.823 293.6,295 263.5,295ZM230.666,282.556C239.689,289.707 251.098,293.977 263.505,293.977C273.297,293.977 282.468,291.317 290.335,286.68C305.945,277.479 316.419,260.495 316.419,241.063C316.419,222.135 306.481,205.529 291.537,196.177C283.409,191.091 273.8,188.15 263.505,188.15C259.633,188.15 255.855,188.566 252.22,189.356C244.434,191.047 237.288,194.453 231.196,199.156C224.983,203.953 219.868,210.098 216.288,217.156C214.714,220.259 213.436,223.539 212.493,226.956C211.254,231.447 210.592,236.178 210.592,241.063C210.592,242.372 210.639,243.671 210.733,244.956C210.977,248.32 211.536,251.595 212.381,254.756C214.143,261.351 217.148,267.442 221.129,272.756C223.873,276.42 227.081,279.715 230.666,282.556Z" style="fill:#0a66a9;fill-rule:nonzero;"/>
                <path d="M272.923,241L286.112,227.862C287.348,226.562 288.025,224.835 287.999,223.047C287.974,221.259 287.248,219.552 285.976,218.287C284.704,217.023 282.986,216.301 281.188,216.276C279.388,216.251 277.65,216.923 276.342,218.151L263.124,231.289L249.935,218.151C249.3,217.484 248.537,216.95 247.691,216.58C246.845,216.211 245.933,216.014 245.009,216.001C244.085,215.988 243.168,216.159 242.312,216.504C241.456,216.85 240.678,217.362 240.024,218.012C239.371,218.661 238.855,219.434 238.508,220.285C238.16,221.136 237.988,222.048 238.001,222.967C238.014,223.885 238.212,224.791 238.584,225.632C238.955,226.473 239.493,227.231 240.165,227.862L253.376,241L240.165,254.138C239.493,254.769 238.955,255.527 238.584,256.368C238.212,257.209 238.014,258.115 238.001,259.033C237.988,259.952 238.16,260.863 238.508,261.715C238.855,262.566 239.371,263.339 240.024,263.988C240.678,264.637 241.456,265.15 242.312,265.496C243.168,265.841 244.085,266.012 245.009,265.999C245.933,265.986 246.845,265.789 247.691,265.42C248.537,265.05 249.3,264.516 249.935,263.849L263.153,250.711L276.372,263.849C277.692,265.004 279.405,265.616 281.164,265.559C282.922,265.503 284.592,264.782 285.834,263.544C287.076,262.305 287.796,260.643 287.848,258.896C287.9,257.148 287.279,255.446 286.112,254.138L272.923,241Z" style="fill:rgb(58,88,138);fill-rule:nonzero;"/>
                <path d="M338.601,331.843L353.362,314.717L355.585,316.84C357.742,318.899 359.033,321.775 359.175,324.837C359.317,327.898 358.297,330.893 356.341,333.163C354.384,335.433 351.651,336.792 348.742,336.941C345.833,337.09 342.987,336.017 340.83,333.958L338.607,331.836L338.601,331.843Z" style="fill:#0a66a9;fill-rule:nonzero;"/>
            </g>
        </g>
    </g>
    <defs>
        <linearGradient id="_Linear1" x1="0" y1="0" x2="1" y2="0" gradientUnits="userSpaceOnUse" gradientTransform="matrix(2.45801,-421.422,-421.422,-2.45801,227.072,67.9251)"><stop offset="0" style="stop-color:rgb(248,248,249);stop-opacity:1"/><stop offset="1" style="stop-color:rgb(245,246,247);stop-opacity:1"/></linearGradient>
        <linearGradient id="_Linear2" x1="0" y1="0" x2="1" y2="0" gradientUnits="userSpaceOnUse" gradientTransform="matrix(9.49279e-16,-155.029,-155.029,-9.49279e-16,229.268,141.556)"><stop offset="0" style="stop-color:white;stop-opacity:1"/><stop offset="1" style="stop-color:rgb(254,255,255);stop-opacity:1"/></linearGradient>
    </defs>
</svg>
