<?xml version="1.0" encoding="UTF-8" standalone="no"?>
<!DOCTYPE svg PUBLIC "-//W3C//DTD SVG 1.1//EN" "http://www.w3.org/Graphics/SVG/1.1/DTD/svg11.dtd">
<svg width="100%" height="100%" viewBox="0 0 2000 2000" version="1.1" xmlns="http://www.w3.org/2000/svg" xmlns:xlink="http://www.w3.org/1999/xlink" xml:space="preserve" xmlns:serif="http://www.serif.com/" style="fill-rule:evenodd;clip-rule:evenodd;stroke-linejoin:round;stroke-miterlimit:2;">
    <g transform="matrix(4.50562,0,0,4.50562,1000,1000)">
        <g transform="matrix(1,0,0,1,-144.625,-126.875)">
            <clipPath id="_clip1">
                <rect x="0" y="0" width="289.25" height="253.75"/>
            </clipPath>
            <g clip-path="url(#_clip1)">
                <g id="Layer_2-2" transform="matrix(4.16667,0,0,4.16667,0,0)">
                    <g id="OnePay_Full_Logo">
                        <g>
                            <path d="M41.44,16.24L39.78,35.91L49.24,30.73L50.01,21.57C50.32,17.93 52.56,14.56 55.89,12.74L59.97,10.51L60.86,-0L47.32,7.41C43.99,9.23 41.75,12.6 41.44,16.24Z" style="fill:url(#_Linear2);fill-rule:nonzero;"/>
                            <path d="M50.01,21.58L49.24,30.74L58.7,25.56L59.97,10.52L55.89,12.75C52.56,14.57 50.32,17.94 50.01,21.58Z" style="fill:url(#_Linear3);fill-rule:nonzero;"/>
                            <path d="M69.42,5.34L65.6,50.54C65.51,51.6 64.9,52.55 63.96,53.06L50.14,60.62C48.6,61.46 46.74,60.25 46.89,58.5L49.24,30.73L55.76,27.17C57.6,26.16 58.81,24.3 58.99,22.21L59.98,10.51L69.43,5.33L69.42,5.34Z" style="fill:url(#_Linear4);fill-rule:nonzero;"/>
                        </g>
                        <g>
                            <path d="M17.18,26.08C17.1,27.03 16.22,27.88 15.28,27.94C14.34,28 13.61,27.24 13.69,26.31C13.77,25.38 14.62,24.51 15.57,24.45C16.52,24.39 17.26,25.13 17.18,26.08Z" style="fill:url(#_Linear5);fill-rule:nonzero;"/>
                            <path d="M19.52,28.16L19.07,33.63C18.78,37.1 15.99,39.87 12.54,40.1L12.38,40.1C8.93,40.34 6.58,37.91 6.87,34.44L6.85,34.44C6.98,32.86 7.64,31.43 8.63,30.31L10.81,32.05C10.27,32.62 9.93,33.37 9.86,34.23C9.71,36.06 10.83,37.2 12.62,37.08L12.78,37.08C14.57,36.95 15.89,35.64 16.05,33.82L16.36,30.1L19.52,28.15L19.52,28.16Z" style="fill:url(#_Linear6);fill-rule:nonzero;"/>
                            <path d="M22.42,21.65C21.57,22.1 21.01,22.96 20.93,23.91L20.68,26.92L22.04,26.2L21.15,37.03C21.11,37.47 21.57,37.7 21.96,37.44L23.96,36.11C24.13,36 24.23,35.82 24.25,35.62L25.54,19.97L22.42,21.63L22.42,21.65Z" style="fill:url(#_Linear7);fill-rule:nonzero;"/>
                            <path d="M31.93,23.19C34.57,23.01 36.37,24.9 36.16,27.56L35.63,34.04C35.4,36.86 32.26,38.83 27.01,39.18L27.3,36.14C30.78,35.91 32.59,34.75 32.7,33.48L32.7,33.32L30.74,33.45C28.26,33.59 26.44,31.63 26.65,29.07L26.72,28.18C26.94,25.52 29.08,23.37 31.74,23.19L31.94,23.19L31.94,23.18L31.93,23.19ZM33.16,27.76C33.24,26.75 32.65,26.14 31.68,26.2L31.48,26.2C30.49,26.28 29.79,26.98 29.71,27.99L29.64,28.88C29.56,29.79 30.21,30.5 31.02,30.45L32.95,30.32L33.16,27.76Z" style="fill:url(#_Linear8);fill-rule:nonzero;"/>
                            <path d="M14.43,41.42C11.82,42.45 9.76,43.89 9.54,46.47L9.23,50.23C9.09,51.92 7.62,53.37 5.94,53.48L5.8,53.48C3.99,53.61 2.87,52.46 3.02,50.64C3.09,49.76 3.43,49.01 3.97,48.45L1.79,46.71C0.79,47.83 0.14,49.25 0.01,50.84L0.03,50.84C-0.25,54.31 2.11,56.73 5.56,56.5L5.7,56.5C9.04,56.27 11.98,53.36 12.25,50L12.5,47.01C12.57,46.12 13.23,45.26 14.14,44.91L15.34,44.44L15.07,47.69C15.01,48.46 15.72,48.95 16.47,48.63L17.28,48.29C17.73,48.1 18.05,47.67 18.09,47.2L18.71,39.73L14.44,41.41L14.43,41.42Z" style="fill:url(#_Linear9);fill-rule:nonzero;"/>
                            <path d="M17.91,51.17C17.83,52.12 16.94,52.97 16.01,53.03C15.08,53.09 14.34,52.33 14.42,51.4C14.5,50.47 15.37,49.6 16.3,49.54C17.23,49.48 17.99,50.22 17.91,51.17Z" style="fill:url(#_Linear10);fill-rule:nonzero;"/>
                            <path d="M17.57,55.21C17.49,56.16 16.62,57.01 15.67,57.07C14.72,57.13 14,56.37 14.08,55.44C14.16,54.51 15.01,53.64 15.96,53.58C16.91,53.52 17.65,54.26 17.57,55.21Z" style="fill:url(#_Linear11);fill-rule:nonzero;"/>
                            <path d="M30.23,43.47L33.35,42.06L32.84,48.27C32.71,49.82 31.43,51.06 29.92,51.17L22.64,51.66C21.12,51.76 20.02,50.67 20.14,49.13L20.95,39.35C20.97,39.16 21.08,38.97 21.25,38.86L23.26,37.53C23.65,37.28 24.1,37.51 24.07,37.94L23.26,47.81C23.21,48.43 23.63,48.59 23.92,48.57L29.15,48.22C29.43,48.2 29.88,47.97 29.93,47.36L30.25,43.47L30.23,43.47Z" style="fill:url(#_Linear12);fill-rule:nonzero;"/>
                            <path d="M27.74,52.43C28.69,52.37 29.41,53.09 29.33,54.06C29.25,55.03 28.4,55.86 27.45,55.92C26.5,55.98 25.76,55.22 25.84,54.29C25.92,53.36 26.79,52.49 27.74,52.43Z" style="fill:url(#_Linear13);fill-rule:nonzero;"/>
                        </g>
                    </g>
                </g>
            </g>
        </g>
    </g>
    <defs>
        <linearGradient id="_Linear2" x1="0" y1="0" x2="1" y2="0" gradientUnits="userSpaceOnUse" gradientTransform="matrix(-82.65,89.69,-89.69,-82.65,107.81,-45.98)"><stop offset="0" style="stop-color:rgb(2,103,149);stop-opacity:1"/><stop offset="1" style="stop-color:rgb(73,196,234);stop-opacity:1"/></linearGradient>
        <linearGradient id="_Linear3" x1="0" y1="0" x2="1" y2="0" gradientUnits="userSpaceOnUse" gradientTransform="matrix(-8.06,-11.12,11.12,-8.06,60.44,28.68)"><stop offset="0" style="stop-color:rgb(2,103,149);stop-opacity:1"/><stop offset="1" style="stop-color:rgb(24,74,140);stop-opacity:1"/></linearGradient>
        <linearGradient id="_Linear4" x1="0" y1="0" x2="1" y2="0" gradientUnits="userSpaceOnUse" gradientTransform="matrix(-67.54,-72.55,72.55,-67.54,88.68,65.24)"><stop offset="0" style="stop-color:rgb(27,135,178);stop-opacity:1"/><stop offset="1" style="stop-color:rgb(2,103,149);stop-opacity:1"/></linearGradient>
        <linearGradient id="_Linear5" x1="0" y1="0" x2="1" y2="0" gradientUnits="userSpaceOnUse" gradientTransform="matrix(-425.379,272.151,-272.151,-425.379,403.238,-98.6034)"><stop offset="0" style="stop-color:rgb(2,103,149);stop-opacity:1"/><stop offset="1" style="stop-color:rgb(73,196,234);stop-opacity:1"/></linearGradient>
        <linearGradient id="_Linear6" x1="0" y1="0" x2="1" y2="0" gradientUnits="userSpaceOnUse" gradientTransform="matrix(-1539.53,931.34,-931.34,-1539.53,1453.6,-338.618)"><stop offset="0" style="stop-color:rgb(2,103,149);stop-opacity:1"/><stop offset="1" style="stop-color:rgb(73,196,234);stop-opacity:1"/></linearGradient>
        <linearGradient id="_Linear7" x1="0" y1="0" x2="1" y2="0" gradientUnits="userSpaceOnUse" gradientTransform="matrix(-590.344,1368.2,-1368.2,-590.344,578.268,-503.017)"><stop offset="0" style="stop-color:rgb(2,103,149);stop-opacity:1"/><stop offset="1" style="stop-color:rgb(73,196,234);stop-opacity:1"/></linearGradient>
        <linearGradient id="_Linear8" x1="0" y1="0" x2="1" y2="0" gradientUnits="userSpaceOnUse" gradientTransform="matrix(-1159.2,1245.42,-1245.42,-1159.2,1151.96,-373.188)"><stop offset="0" style="stop-color:rgb(2,103,149);stop-opacity:1"/><stop offset="1" style="stop-color:rgb(73,196,234);stop-opacity:1"/></linearGradient>
        <linearGradient id="_Linear9" x1="0" y1="0" x2="1" y2="0" gradientUnits="userSpaceOnUse" gradientTransform="matrix(1086.8,-617.356,617.356,1086.8,334.782,763.336)"><stop offset="0" style="stop-color:rgb(2,103,149);stop-opacity:1"/><stop offset="1" style="stop-color:rgb(24,74,140);stop-opacity:1"/></linearGradient>
        <linearGradient id="_Linear10" x1="0" y1="0" x2="1" y2="0" gradientUnits="userSpaceOnUse" gradientTransform="matrix(203.485,-128.645,128.645,203.485,88.3003,217.939)"><stop offset="0" style="stop-color:rgb(2,103,149);stop-opacity:1"/><stop offset="1" style="stop-color:rgb(24,74,140);stop-opacity:1"/></linearGradient>
        <linearGradient id="_Linear11" x1="0" y1="0" x2="1" y2="0" gradientUnits="userSpaceOnUse" gradientTransform="matrix(203.501,-128.61,128.61,203.501,94.0246,231.525)"><stop offset="0" style="stop-color:rgb(2,103,149);stop-opacity:1"/><stop offset="1" style="stop-color:rgb(24,74,140);stop-opacity:1"/></linearGradient>
        <linearGradient id="_Linear12" x1="0" y1="0" x2="1" y2="0" gradientUnits="userSpaceOnUse" gradientTransform="matrix(768.153,-523.734,523.734,768.153,298.258,721.926)"><stop offset="0" style="stop-color:rgb(2,103,149);stop-opacity:1"/><stop offset="1" style="stop-color:rgb(24,74,140);stop-opacity:1"/></linearGradient>
        <linearGradient id="_Linear13" x1="0" y1="0" x2="1" y2="0" gradientUnits="userSpaceOnUse" gradientTransform="matrix(203.501,-128.613,128.613,203.501,115.765,246.115)"><stop offset="0" style="stop-color:rgb(2,103,149);stop-opacity:1"/><stop offset="1" style="stop-color:rgb(24,74,140);stop-opacity:1"/></linearGradient>
    </defs>
</svg>
