<svg id="Layer_1" height="300" viewBox="0 0 570 570" width="300" xmlns="http://www.w3.org/2000/svg" version="1.1" xmlns:xlink="http://www.w3.org/1999/xlink" xmlns:svgjs="http://svgjs.dev/svgjs">
    <g width="100%" height="100%" transform="matrix(1,0,0,1,0,0)">
        <path d="m223.48 137.807v78.368c0 4.028-3.277 7.306-7.306 7.306h-78.369c-4.028 0-7.306-3.277-7.306-7.306v-78.368c0-4.029 3.277-7.307 7.306-7.307h78.369c4.029 0 7.306 3.277 7.306 7.307zm-7.305 150.711h-78.369c-4.028 0-7.306 3.277-7.306 7.306v78.369c0 4.028 3.277 7.306 7.306 7.306h78.369c4.028 0 7.306-3.277 7.306-7.306v-78.369c-.001-4.029-3.278-7.306-7.306-7.306zm295.825-32.518c0 141.158-114.841 255.999-256 255.999s-256-114.841-256-255.999 114.841-255.999 256-255.999 256 114.841 256 255.999zm-264.52 39.823c0-17.262-14.043-31.306-31.306-31.306h-78.369c-17.262 0-31.306 14.044-31.306 31.306v78.369c0 17.262 14.043 31.306 31.306 31.306h78.369c17.262 0 31.306-14.044 31.306-31.306zm0-158.016c0-17.263-14.043-31.307-31.306-31.307h-78.369c-17.262 0-31.306 14.044-31.306 31.307v78.368c0 17.262 14.043 31.306 31.306 31.306h78.369c17.262 0 31.306-14.044 31.306-31.306zm17.038 78.368c0 17.262 14.043 31.306 31.306 31.306h78.369c17.262 0 31.306-14.044 31.306-31.306v-78.368c0-17.263-14.044-31.307-31.306-31.307h-78.369c-17.262 0-31.306 14.044-31.306 31.307zm116.977 72.343v34.491h-27.312c-6.627 0-12 5.373-12 12 0 6.628 5.373 12 12 12h39.312c6.627 0 12-5.372 12-12v-58.491c0-6.628-5.373-12-12-12h-39.312c-6.627 0-12 5.372-12 12s5.373 12 12 12zm-55.973 104.982c0-6.627-5.372-12-12-12l-25.007-.001v-46.49c0-6.628-5.373-12-12-12s-12 5.372-12 12v58.49c0 6.627 5.373 12 12 12l37.006.001c6.628 0 12.001-5.373 12.001-12zm2.298-116.982c0-6.628-5.373-12-12-12h-39.305c-6.627 0-12 5.372-12 12s5.373 12 12 12h27.305v46.489c0 6.628 5.373 12 12 12s12-5.372 12-12zm77.68 116.981c0-6.627-5.373-12-12-12h-41.616c-6.627 0-12 5.373-12 12s5.373 12 12 12h41.616c6.627 0 12-5.373 12-12zm-109.677-170.019h78.369c4.029 0 7.306-3.277 7.306-7.306v-78.368c0-4.029-3.277-7.307-7.306-7.307h-78.369c-4.028 0-7.306 3.277-7.306 7.307v78.368c.001 4.029 3.278 7.306 7.306 7.306z" fill="#0b66a9" fill-opacity="1" data-original-color="#000000ff" stroke="none" stroke-opacity="1"/>
    </g>
</svg>