<?xml version="1.0" encoding="UTF-8" standalone="no"?><!DOCTYPE svg PUBLIC "-//W3C//DTD SVG 1.1//EN" "http://www.w3.org/Graphics/SVG/1.1/DTD/svg11.dtd"><svg width="100%" height="100%" viewBox="0 0 2000 2000" version="1.1" xmlns="http://www.w3.org/2000/svg" xmlns:xlink="http://www.w3.org/1999/xlink" xml:space="preserve" xmlns:serif="http://www.serif.com/" style="fill-rule:evenodd;clip-rule:evenodd;stroke-linecap:round;stroke-linejoin:round;stroke-miterlimit:1.5;"><g id="medit"><g id="Qr"><circle cx="1000.81" cy="999.195" r="833.235" style="fill:#0b66a9;"/><g><g><path d="M1368.31,798.317l0,401.755c0,104.278 -84.66,188.938 -188.938,188.938l-348.808,-0c-104.278,-0 -188.938,-84.66 -188.938,-188.938l-0,-401.755c-0,-104.278 84.66,-188.938 188.938,-188.938l348.808,0c104.278,0 188.938,84.66 188.938,188.938Z" style="fill:#ebebeb;fill-opacity:0.04;"/><g><path d="M619.514,1114.05c0,0 -40.691,311.198 277.409,271.455" style="fill:none;stroke:#fff;stroke-width:68.75px;"/><path d="M617.3,884.341c0,0 -40.691,-311.198 277.409,-271.455" style="fill:none;stroke:#fff;stroke-width:68.75px;"/><path d="M1384.31,884.341c-0,0 40.691,-311.198 -277.409,-271.455" style="fill:none;stroke:#fff;stroke-width:68.75px;"/><path d="M1384.31,1114.05c-0,0 40.691,311.198 -277.409,271.455" style="fill:none;stroke:#fff;stroke-width:68.75px;"/><path d="M963.925,1226.33l-192.361,0" style="fill:none;stroke:#fff;stroke-width:68.75px;"/><path d="M1196.02,914.889l-0,84.295" style="fill:none;stroke:#fff;stroke-width:68.75px;"/><path d="M1041.26,775.175l-0,176.911c-0,-0 0.618,79.177 -57.527,80.414l-212.17,-0" style="fill:none;stroke:#fff;stroke-width:68.75px;"/></g></g><path d="M1236.41,1139.64l0,69.96c0,13.981 -11.35,25.331 -25.33,25.331l-107.59,-0c-13.98,-0 -25.33,-11.35 -25.33,-25.331l-0,-69.96c-0,-13.98 11.35,-25.33 25.33,-25.33l107.59,-0c13.98,-0 25.33,11.35 25.33,25.33Z" style="fill:#fff;stroke:#fff;stroke-width:54.17px;"/><path d="M928.735,803.765l0,87.712c0,17.528 -14.23,31.758 -31.757,31.758l-94.735,-0c-17.528,-0 -31.758,-14.23 -31.758,-31.758l-0,-87.712c-0,-17.527 14.23,-31.758 31.758,-31.758l94.735,0c17.527,0 31.757,14.231 31.757,31.758Z" style="fill:#fff;stroke:#fff;stroke-width:54.17px;"/></g></g></g></svg>