<svg height="300" viewBox="0 0 32 32" width="300" xmlns="http://www.w3.org/2000/svg" version="1.1" xmlns:xlink="http://www.w3.org/1999/xlink" xmlns:svgjs="http://svgjs.dev/svgjs">
    <g width="100%" height="100%" transform="matrix(1,0,0,1,0,0)">
        <g id="qr_code" data-name="qr code">
            <rect height="3.571" rx=".643" width="3.571" x="10.786" y="10.786" fill="#0b66a9" fill-opacity="1" data-original-color="#000000ff" stroke="none" stroke-opacity="1"/>
            <rect height="3.571" rx=".643" width="3.571" x="17.643" y="10.786" fill="#0b66a9" fill-opacity="1" data-original-color="#000000ff" stroke="none" stroke-opacity="1"/>
            <rect height="3.571" rx=".643" width="3.571" x="10.786" y="17.643" fill="#0b66a9" fill-opacity="1" data-original-color="#000000ff" stroke="none" stroke-opacity="1"/>
            <path d="m16 1.5a14.5 14.5 0 1 0 14.5 14.5 14.507 14.507 0 0 0 -14.5-14.5zm-8.5 8.786a2.786 2.786 0 0 1 2.786-2.786h3.428a.5.5 0 0 1 0 1h-3.428a1.785 1.785 0 0 0 -1.786 1.786v3.428a.5.5 0 0 1 -1 0zm6.214 14.214h-3.428a2.786 2.786 0 0 1 -2.786-2.786v-3.428a.5.5 0 0 1 1 0v3.428a1.785 1.785 0 0 0 1.786 1.786h3.428a.5.5 0 0 1 0 1zm1.643-3.929a1.642 1.642 0 0 1 -1.643 1.643h-2.285a1.642 1.642 0 0 1 -1.643-1.643v-2.285a1.642 1.642 0 0 1 1.643-1.643h2.285a1.642 1.642 0 0 1 1.643 1.643zm0-6.857a1.642 1.642 0 0 1 -1.643 1.643h-2.285a1.642 1.642 0 0 1 -1.643-1.643v-2.285a1.642 1.642 0 0 1 1.643-1.643h2.285a1.642 1.642 0 0 1 1.643 1.643zm1.286-2.285a1.642 1.642 0 0 1 1.643-1.643h2.285a1.642 1.642 0 0 1 1.643 1.643v2.285a1.642 1.642 0 0 1 -1.643 1.643h-2.285a1.642 1.642 0 0 1 -1.643-1.643zm1 10.285a.5.5 0 0 1 -1 0v-3.177a1.642 1.642 0 0 1 1.643-1.642h3.428a.5.5 0 1 1 0 1h-3.428a.642.642 0 0 0 -.643.642zm4.022-2.285v2.285a.5.5 0 0 1 -1 0v-2.285a.5.5 0 0 1 1 0zm-1.736 0v2.285a.5.5 0 0 1 -1 0v-2.285a.5.5 0 0 1 1 0zm4.571 2.285a2.786 2.786 0 0 1 -2.786 2.786h-3.428a.5.5 0 1 1 0-1h3.428a1.785 1.785 0 0 0 1.786-1.786v-3.428a.5.5 0 1 1 1 0zm0-8a.5.5 0 0 1 -1 0v-3.428a1.785 1.785 0 0 0 -1.786-1.786h-3.428a.5.5 0 0 1 0-1h3.428a2.786 2.786 0 0 1 2.786 2.786z" fill-rule="evenodd" fill="#0b66a9" fill-opacity="1" data-original-color="#000000ff" stroke="none" stroke-opacity="1"/>
        </g>
    </g>
</svg>