<?xml version="1.0" encoding="utf-8"?>
<svg width="100%" height="100%" viewBox="0 0 2000 2000"
    xmlns="http://www.w3.org/2000/svg">

  <!-- الخلفية الدائرية -->
  <circle cx="1000" cy="1000" r="833" fill="#0b66a9"/>

  <!-- تكبير الأيقونة + تلوين داخلي أزرق + حدود بيضاء -->
  <g transform="translate(1000 1000) scale(0.82) translate(-2000 -2000)">
    
    <g fill="#0b66a9">
      <path style="fill:#FFFFFF;"
        d="M2430.05,1763.69c67.18,0,121.99,54.81,121.99,121.99v137.38c0,67.17-54.81,121.98-121.99,121.98
					h-102.68v59.76c0,67.17-54.81,121.99-121.99,121.99h-635.43c-67.17,0-121.99-54.82-121.99-121.99v-289.66
					c0-61.95,82.15-82.95,112.68-30.06l34.16,59.17l77.83,0.17V1733.4c0-61.9,82.02-82.94,112.61-30.19l34.32,59.29L2430.05,1763.69
					L2430.05,1763.69z M2249.33,2145.04h-454.71c-67.94,0-121.99-55.12-121.99-122.88l-122.73-0.27l-23.9-41.39v224.3
					c0,24.09,19.86,43.94,43.95,43.94h635.43c24.09,0,43.95-19.85,43.95-43.94V2145.04z M2430.05,1841.73l-655.57-1.59l-23.81-41.23
					v224.15c0,24.09,19.86,43.94,43.95,43.94h635.43c24.09,0,43.95-19.85,43.95-43.94v-137.38
					C2474,1861.59,2454.14,1841.73,2430.05,1841.73L2430.05,1841.73z"/>
    </g>

    <!-- النقاط الثلاث (أبيض بالكامل) -->
	<ellipse transform="matrix(0.9239 -0.3827 0.3827 0.9239 -599.6317 895.1873)" style="fill-rule:evenodd;clip-rule:evenodd;fill:#FFFFFF;" cx="1950.39" cy="1954.87" rx="58.71" ry="58.71"/>
					<circle style="fill-rule:evenodd;clip-rule:evenodd;fill:#FFFFFF;" cx="2110.15" cy="1954.87" r="58.71"/>
					<circle style="fill-rule:evenodd;clip-rule:evenodd;fill:#FFFFFF;" cx="2269.9" cy="1954.87" r="58.71"/>

  </g>
</svg>
