<?xml version="1.0" encoding="UTF-8" standalone="no"?>
<!DOCTYPE svg PUBLIC "-//W3C//DTD SVG 1.1//EN" "http://www.w3.org/Graphics/SVG/1.1/DTD/svg11.dtd">
<svg width="100%" height="100%" viewBox="0 0 563 563" version="1.1" xmlns="http://www.w3.org/2000/svg" xmlns:xlink="http://www.w3.org/1999/xlink" xml:space="preserve" xmlns:serif="http://www.serif.com/" style="fill-rule:evenodd;clip-rule:evenodd;stroke-linejoin:round;stroke-miterlimit:2;">
    <circle cx="281.44" cy="281.44" r="239.4" style="fill:rgb(11,102,169);"/>
    <g transform="matrix(1.52869,0,0,9.05362,-1531.09,-10818.6)">
        <g>
            <g>
                <g transform="matrix(-1.33012,0,-2.73691e-48,0.224589,2041.62,427.695)">
                    <path d="M557.648,3528.76L648.528,3529L673.528,3572.56L584.31,3572.56L557.648,3528.76Z" style="fill:white;"/>
                </g>
                <g transform="matrix(0.435115,0,0,0.0734683,490.466,985.608)">
                    <circle cx="1595.5" cy="3414.5" r="47.5" style="fill:white;"/>
                </g>
                <g transform="matrix(0.435115,0,0,0.0734683,549.207,985.608)">
                    <circle cx="1595.5" cy="3414.5" r="47.5" style="fill:white;"/>
                </g>
                <g transform="matrix(-1.46002,0,0,0.246521,2908.19,416.468)">
                    <path d="M1212,3227.43L1244,3227.43C1244,3227.43 1257.94,3229.49 1258,3242C1258,3242 1258.45,3253.23 1243,3254L1228,3254L1210.88,3288.12C1210.88,3288.12 1198.72,3269.34 1188.62,3251.52C1188.62,3251.52 1191.94,3229.35 1212,3227.43Z" style="fill:white;"/>
                </g>
            </g>
        </g>
    </g>
</svg>
