<?xml version="1.0" encoding="UTF-8" standalone="no"?>
<!DOCTYPE svg PUBLIC "-//W3C//DTD SVG 1.1//EN" "http://www.w3.org/Graphics/SVG/1.1/DTD/svg11.dtd">
<svg width="100%" height="100%" viewBox="0 0 2000 2000" version="1.1" xmlns="http://www.w3.org/2000/svg" xmlns:xlink="http://www.w3.org/1999/xlink" xml:space="preserve" xmlns:serif="http://www.serif.com/" style="fill-rule:evenodd;clip-rule:evenodd;stroke-linejoin:round;stroke-miterlimit:2;">
    <g transform="matrix(1.04937,0,0,1.04937,-47.1915,-49.3656)">
        <g transform="matrix(1,0,0,1,-117,-589.5)">
            <path d="M819.647,1460.75L819.647,1718.25C819.647,1789.31 761.956,1847 690.897,1847L433.397,1847C362.338,1847 304.647,1789.31 304.647,1718.25L304.647,1460.75C304.647,1389.69 362.338,1332 433.397,1332L690.897,1332C761.956,1332 819.647,1389.69 819.647,1460.75Z" style="fill:white;"/>
        </g>
        <g transform="matrix(1.68208,0,0,9.96209,-1549.27,-11213.8)">
            <g>
                <g transform="matrix(-1.33012,0,-2.73691e-48,0.224589,2041.62,427.695)">
                    <path d="M557.648,3528.76L648.528,3529L673.528,3572.56L584.31,3572.56L557.648,3528.76Z" style="fill:url(#_Linear1);"/>
                </g>
                <g transform="matrix(0.435115,0,0,0.0734683,490.466,985.608)">
                    <circle cx="1595.5" cy="3414.5" r="47.5" style="fill:rgb(50,50,50);"/>
                </g>
                <g transform="matrix(0.435115,0,0,0.0734683,549.207,985.608)">
                    <circle cx="1595.5" cy="3414.5" r="47.5" style="fill:rgb(50,50,50);"/>
                </g>
                <g transform="matrix(-1.46002,0,0,0.246521,2908.19,416.468)">
                    <path d="M1212,3227.43L1244,3227.43C1244,3227.43 1257.94,3229.49 1258,3242C1258,3242 1258.45,3253.23 1243,3254L1228,3254L1210.88,3288.12C1210.88,3288.12 1198.72,3269.34 1188.62,3251.52C1188.62,3251.52 1191.94,3229.35 1212,3227.43Z" style="fill:rgb(50,50,50);"/>
                </g>
            </g>
        </g>
        <g transform="matrix(1.85021,0,0,1.85021,-502.781,-884.015)">
            <g transform="matrix(0.735249,0,0,0.735249,143.215,339.888)">
                <path d="M859.984,908.849C852.11,899.765 843.52,893.406 834.209,889.773C824.898,886.139 813.732,884.323 800.713,884.323C783.302,884.323 768.502,888.602 756.317,897.153C744.128,905.708 737.958,917.556 737.809,932.693C737.656,941.628 739.207,949.235 742.464,955.516C745.718,961.8 750.526,966.682 756.884,970.163C763.243,973.648 769.79,976.22 776.528,977.884C783.263,979.552 791.402,980.837 800.94,981.745C811.99,982.653 820.13,984.811 825.353,988.217C830.576,991.624 833.109,996.584 832.96,1003.09C832.96,1008.69 830.008,1013.24 824.104,1016.72C818.199,1020.2 810.553,1021.94 801.167,1021.94C792.385,1021.94 783.529,1020.05 774.598,1016.26C765.663,1012.48 758.322,1006.88 752.57,999.458L731.45,1021.49C737.809,1032.24 747.347,1040.41 760.064,1046.01C772.781,1051.62 786.406,1054.34 800.94,1054.19C812.898,1054.04 823.798,1052.26 833.641,1048.85C843.481,1045.44 851.656,1039.77 858.167,1031.82C864.675,1023.87 867.932,1014.3 867.932,1003.09C867.932,972.207 847.569,955.026 806.845,951.542C795.036,950.484 786.367,948.703 780.843,946.205C775.314,943.707 772.554,939.13 772.554,932.466C772.554,927.169 775.279,922.928 780.729,919.749C786.179,916.57 792.914,914.98 800.94,914.98C807.753,914.98 814.527,916.116 821.265,918.386C828,920.657 833.489,923.989 837.729,928.378L859.984,908.849Z" style="fill:rgb(54,54,54);fill-rule:nonzero;"/>
                <path d="M926.749,1048.96L961.948,1048.96L961.948,921.566L1010.32,921.566L1010.32,890L878.379,890L878.379,921.566L926.749,921.566L926.749,1048.96Z" style="fill:rgb(54,54,54);fill-rule:nonzero;"/>
                <path d="M1191.99,969.482C1191.99,943.899 1184.12,923.61 1168.38,908.622C1152.63,893.633 1131.89,886.139 1106.15,886.139C1080.41,886.139 1059.67,893.633 1043.93,908.622C1028.18,923.61 1020.31,943.899 1020.31,969.482C1020.31,995.069 1028.18,1015.36 1043.93,1030.34C1059.67,1045.33 1080.41,1052.83 1106.15,1052.83C1131.89,1052.83 1152.63,1045.33 1168.38,1030.34C1184.12,1015.36 1191.99,995.069 1191.99,969.482ZM1157.25,969.482C1157.25,984.47 1152.55,996.772 1143.17,1006.38C1137.18,1012.52 1129.98,1016.7 1121.59,1018.92C1116.83,1020.18 1111.68,1020.81 1106.15,1020.81C1091.16,1020.81 1078.9,1016 1069.36,1006.38C1059.83,996.772 1055.06,984.47 1055.06,969.482C1055.06,954.799 1059.83,942.536 1069.36,932.693C1078.9,922.854 1091.16,917.932 1106.15,917.932C1121.29,917.932 1133.59,922.815 1143.05,932.58C1152.51,942.345 1157.25,954.647 1157.25,969.482Z" style="fill:rgb(54,54,54);fill-rule:nonzero;"/>
                <path d="M1359.36,1046.24L1315.76,993.554C1329.84,988.558 1339.45,981.937 1344.6,973.683C1349.74,965.433 1352.39,955.402 1352.55,943.594C1352.55,928.758 1347.32,916.116 1336.88,905.669C1326.43,895.223 1312.05,890 1293.73,890L1218.34,890L1218.34,1048.96L1253.76,1048.96L1253.76,996.733L1279.42,996.733L1320.07,1048.96L1359.36,1048.96L1359.36,1046.24ZM1293.73,920.43C1301.3,920.43 1307.13,922.893 1311.21,927.811C1315.3,932.732 1317.42,938.296 1317.57,944.502C1317.57,950.257 1315.57,955.402 1311.56,959.944C1307.54,964.486 1301.75,966.757 1294.18,966.757L1253.76,966.757L1253.76,920.43L1293.73,920.43Z" style="fill:rgb(54,54,54);fill-rule:nonzero;"/>
                <path d="M1504.02,1016.26L1417.72,1016.26L1417.72,984.243L1496.07,984.243L1496.07,953.131L1417.72,953.131L1417.72,922.474L1500.84,922.474L1500.84,890L1382.98,890L1382.98,1048.96L1504.02,1048.96L1504.02,1016.26Z" style="fill:rgb(54,54,54);fill-rule:nonzero;"/>
            </g>
            <g transform="matrix(1.37714,0,0,1.37714,-420.563,99.0601)">
                <path d="M824.6,605.65L827.9,603.6C826.466,601.167 824.65,599.5 822.45,598.6C820.25,597.7 817.65,597.25 814.65,597.25C813.05,597.25 811.491,597.425 809.975,597.775C808.458,598.125 807.025,598.667 805.675,599.4C804.325,600.134 803.241,601.159 802.425,602.475C801.608,603.792 801.216,605.317 801.25,607.05C801.25,608.417 801.508,609.625 802.025,610.675C802.541,611.725 803.183,612.575 803.95,613.225C804.716,613.875 805.733,614.442 807,614.925C808.266,615.409 809.441,615.775 810.525,616.025C811.608,616.275 812.95,616.517 814.55,616.75C816.083,616.984 817.375,617.234 818.425,617.5C819.475,617.767 820.516,618.134 821.55,618.6C822.583,619.067 823.358,619.684 823.875,620.45C824.391,621.217 824.65,622.117 824.65,623.15C824.65,624.384 824.341,625.442 823.725,626.325C823.108,627.209 822.291,627.884 821.275,628.35C820.258,628.817 819.208,629.15 818.125,629.35C817.041,629.55 815.916,629.65 814.75,629.65C812.483,629.65 810.308,629.117 808.225,628.05C806.141,626.984 804.566,625.467 803.5,623.5L799.9,625.6C801.166,628.367 803.116,630.409 805.75,631.725C808.383,633.042 811.366,633.7 814.7,633.7C816.466,633.7 818.15,633.517 819.75,633.15C821.35,632.784 822.858,632.217 824.275,631.45C825.691,630.684 826.825,629.6 827.675,628.2C828.525,626.8 828.95,625.167 828.95,623.3C828.95,621.767 828.675,620.425 828.125,619.275C827.575,618.125 826.916,617.217 826.15,616.55C825.383,615.884 824.308,615.292 822.925,614.775C821.541,614.259 820.316,613.884 819.25,613.65C818.183,613.417 816.783,613.167 815.05,612.9C813.55,612.667 812.308,612.425 811.325,612.175C810.341,611.925 809.366,611.584 808.4,611.15C807.433,610.717 806.716,610.167 806.25,609.5C805.783,608.834 805.55,608.05 805.55,607.15C805.55,605.184 806.458,603.692 808.275,602.675C810.091,601.659 812.25,601.15 814.75,601.15C816.816,601.184 818.75,601.575 820.55,602.325C822.35,603.075 823.7,604.184 824.6,605.65Z" style="fill:rgb(54,54,54);fill-rule:nonzero;"/>
                <path d="M866.45,604.3L866.45,633L870.75,633L870.75,598L865.55,598L853.35,616L841.05,598L835.85,598L835.85,633L840.15,633L840.15,604.2L852.85,622L853.75,622L866.45,604.3Z" style="fill:rgb(54,54,54);fill-rule:nonzero;"/>
                <path d="M891.95,598L876.25,633L881,633L884.4,625.3L904.4,625.3L907.85,633L912.55,633L896.85,598L891.95,598ZM902.7,621.3L886.1,621.3L894.4,602.4L902.7,621.3Z" style="fill:rgb(54,54,54);fill-rule:nonzero;"/>
                <path d="M941.8,633L947.3,633L935.75,620.05C939.15,619.784 941.683,618.625 943.35,616.575C945.016,614.525 945.833,612.067 945.8,609.2C945.8,606.134 944.758,603.5 942.675,601.3C940.591,599.1 937.683,598 933.95,598L918.05,598L918.05,633L922.4,633L922.4,620.4L930.9,620.4L941.8,633ZM933.75,616.5L922.4,616.5L922.4,601.9L933.95,601.9C936.316,601.9 938.166,602.65 939.5,604.15C940.833,605.65 941.483,607.367 941.45,609.3C941.45,611.4 940.791,613.125 939.475,614.475C938.158,615.825 936.25,616.5 933.75,616.5Z" style="fill:rgb(54,54,54);fill-rule:nonzero;"/>
                <path d="M961.2,601.9L961.2,633L965.5,633L965.5,601.9L977.45,601.9L977.45,598L949.25,598L949.25,601.9L961.2,601.9Z" style="fill:rgb(54,54,54);fill-rule:nonzero;"/>
            </g>
        </g>
    </g>
    <defs>
        <linearGradient id="_Linear1" x1="0" y1="0" x2="1" y2="0" gradientUnits="userSpaceOnUse" gradientTransform="matrix(-70.6257,28.4736,28.4736,70.6257,657.181,3532.87)"><stop offset="0" style="stop-color:rgb(34,115,178);stop-opacity:1"/><stop offset="1" style="stop-color:rgb(0,143,255);stop-opacity:1"/></linearGradient>
    </defs>
</svg>
