<?xml version="1.0" encoding="UTF-8"?>
<svg id="Layer_1" xmlns="http://www.w3.org/2000/svg" version="1.1" xmlns:serif="http://www.serif.com/" xmlns:xlink="http://www.w3.org/1999/xlink" viewBox="0 0 562.99 562.79">
  <!-- Generator: Adobe Illustrator 29.2.1, SVG Export Plug-In . SVG Version: 2.1.0 Build 116)  -->
  <circle cx="281.44" cy="281.44" r="239.4" fill="#0b66a9"/>
  <g>
    <path d="M363,182.43c-.87-7.15-7.15-12.47-14.42-12.15-2.38.11-5.42,1.3-7.27,2.82l-109.19,109.19c-9.76,11.82,5.31,25.48,16.05,15.72l52.26-52.26c34.27-26.78,76.12,17.35,48.03,50.31l-108.76,108.87c-6.72,8.78-1.52,20.82,9.21,22.01h95.31c10.19-1.19,18.11-9.21,18.76-19.51v-225h0ZM278.53,416.43c-10.3-1.63-10.3-17.67,0-19.19,15.61-2.27,15.18,21.58,0,19.19h0Z" fill="#fff"/>
    <path d="M316.37,263.22l-52.92,52.8c-33.39,28.08-76.98-14.96-49.55-48.79l108.1-107.99c7.81-7.81,4.44-20.93-6.4-23.42h-98.24c-9.32,1.52-16.59,9.76-17.35,19.09v225.32c1.52,10.95,14.32,15.72,22.66,8.35l107.89-107.78c9.54-10.19-2.06-25.05-14.09-17.57h-.11,0ZM264.98,154.14h32.42c4.67,1.08,4.12,6.72-.76,7.27-9.54,1.08-21.14-.76-30.9,0-4.12-.54-4.67-5.86-.76-7.27h0Z" fill="#fff"/>
  </g>
</svg>