<?xml version="1.0" encoding="UTF-8" standalone="no"?>
<!DOCTYPE svg PUBLIC "-//W3C//DTD SVG 1.1//EN" "http://www.w3.org/Graphics/SVG/1.1/DTD/svg11.dtd">
<svg width="100%" height="100%" viewBox="0 0 2000 2000" version="1.1" xmlns="http://www.w3.org/2000/svg" xmlns:xlink="http://www.w3.org/1999/xlink" xml:space="preserve" xmlns:serif="http://www.serif.com/" style="fill-rule:evenodd;clip-rule:evenodd;stroke-linejoin:round;stroke-miterlimit:2;">
    <g transform="matrix(1.20102,0,0,1.20102,233.15,-475.45)">
        <circle cx="638.5" cy="1228.5" r="589.5" style="fill:rgb(10,77,151);"/>
    </g>
    <g transform="matrix(1,0,0,1,-153.5,45.1047)">
        <path d="M1132.61,585.53C1137.13,578.353 1145.02,574 1153.5,574C1161.98,574 1169.87,578.353 1174.39,585.53L1302.04,788.059L1534.1,846.867C1542.32,848.951 1548.9,855.109 1551.52,863.176C1554.14,871.244 1552.44,880.092 1547.01,886.611L1393.84,1070.59L1409.62,1309.46C1410.17,1317.93 1406.35,1326.09 1399.49,1331.07C1392.62,1336.06 1383.68,1337.17 1375.81,1334.03L1153.5,1245.2L931.193,1334.03C923.316,1337.17 914.375,1336.06 907.512,1331.07C900.649,1326.09 896.825,1317.93 897.385,1309.46L913.165,1070.59L759.991,886.611C754.564,880.092 752.862,871.244 755.483,863.176C758.104,855.109 764.682,848.951 772.905,846.867L1004.97,788.059L1132.61,585.53Z" style="fill:white;"/>
    </g>
</svg>
