<svg id="Layer_1" height="300" viewBox="0 0 570 570" width="300" xmlns="http://www.w3.org/2000/svg" data-name="Layer 1" version="1.1" xmlns:xlink="http://www.w3.org/1999/xlink" xmlns:svgjs="http://svgjs.dev/svgjs">
    <g width="100%" height="100%" transform="matrix(6.123233995736766e-17,1,-1,6.123233995736766e-17,512,0)">
        <path d="m256 0c141.384 0 256 114.615 256 256s-114.616 256-256 256-256-114.615-256-256 114.615-256 256-256zm136.5 179.063h-183.728l7.052-30.676a3.984 3.984 0 0 0 -5.894-4.341l-43.241 24.954-45.2 26.1a3.869 3.869 0 0 0 -1.993 3.45 3.948 3.948 0 0 0 1.993 3.478l45.2 26.076 43.241 24.982a4 4 0 0 0 5.894-4.369l-7.052-30.676h183.728a19.492 19.492 0 1 0 0-38.983zm-273 114.881a19.506 19.506 0 0 0 0 39.012h183.718l-7.049 30.644a3.949 3.949 0 0 0 1.518 4.111 3.864 3.864 0 0 0 4.373.23l43.24-24.951 45.2-26.1a3.978 3.978 0 0 0 0-6.9l-45.2-26.1-43.24-24.962a3.983 3.983 0 0 0 -5.891 4.341l7.049 30.675z" fill-rule="evenodd" fill="#0b66a9" fill-opacity="1" data-original-color="#000000ff" stroke="none" stroke-opacity="1"/>
    </g>
</svg>