<?xml version="1.0" encoding="UTF-8" standalone="no"?><!DOCTYPE svg PUBLIC "-//W3C//DTD SVG 1.1//EN" "http://www.w3.org/Graphics/SVG/1.1/DTD/svg11.dtd"><svg width="100%" height="100%" viewBox="0 0 2000 2000" version="1.1" xmlns="http://www.w3.org/2000/svg" xmlns:xlink="http://www.w3.org/1999/xlink" xml:space="preserve" xmlns:serif="http://www.serif.com/" style="fill-rule:evenodd;clip-rule:evenodd;stroke-linecap:round;stroke-linejoin:round;stroke-miterlimit:1.5;"><g id="medit"><g id="transaction"><circle cx="1000" cy="1000" r="834.041" style="fill:#0b66a9;"/><path d="M821.915,871.807c0,-0 -4.17,109.358 -4.917,203.45c-0.1,12.616 -0.197,25.385 -0.288,38.12c-0.731,102.41 -1.075,202.666 0.365,204.106c2.956,2.956 -245.991,-224.887 -245.991,-224.887l250.831,-220.789Z" style="fill:#fff;"/><path d="M862.302,986.15l4.058,210.207l-86.85,-0l0,-149.05l82.792,-61.157Z" style="fill:#fff;"/><path d="M832.209,1213.54l306.54,-3.487l2.936,-207.852l-295.541,-0l-13.935,211.339Z" style="fill:#fff;"/><path d="M989.287,833.912l140.033,0l-0,-180.588l306.082,256.852l-298.43,277.261l-0,-179.535l-306.848,0l0,-156.39l-265.526,241.04l252.685,254.124l-0,-157.824l156.867,0" style="fill:none;stroke:#fff;stroke-width:54.17px;"/></g></g></svg>