<?xml version="1.0" encoding="UTF-8" standalone="no"?><!DOCTYPE svg PUBLIC "-//W3C//DTD SVG 1.1//EN" "http://www.w3.org/Graphics/SVG/1.1/DTD/svg11.dtd"><svg width="100%" height="100%" viewBox="0 0 2000 2000" version="1.1" xmlns="http://www.w3.org/2000/svg" xmlns:xlink="http://www.w3.org/1999/xlink" xml:space="preserve" xmlns:serif="http://www.serif.com/" style="fill-rule:evenodd;clip-rule:evenodd;stroke-linejoin:round;stroke-miterlimit:2;"><g id="medit"><g id="vouchers"><g><circle cx="1000" cy="1000" r="834.041" style="fill:#0b66a9;"/><g><path d="M1367.85,797.018l-0,405.964c-0,95.431 -77.479,172.91 -172.91,172.91l-455.6,-0c-95.432,-0 -172.91,-77.479 -172.91,-172.91l-0,-405.964c-0,-95.431 77.478,-172.91 172.91,-172.91l455.6,0c95.431,0 172.91,77.479 172.91,172.91Z" style="fill:#fff;"/><path d="M829.292,909.812l0,180.376c0,22.53 -18.291,40.822 -40.822,40.822c-22.53,-0 -40.822,-18.292 -40.822,-40.822l0,-180.376c0,-22.53 18.292,-40.822 40.822,-40.822c22.531,0 40.822,18.292 40.822,40.822Z" style="fill:#0b66a9;"/><path d="M924.227,1001.07c-0,19.449 -15.79,35.24 -35.24,35.24l-201.034,-0c-19.449,-0 -35.239,-15.791 -35.239,-35.24c-0,-19.45 15.79,-35.24 35.239,-35.24l201.034,0c19.45,0 35.24,15.79 35.24,35.24Z" style="fill:#0b66a9;"/><path d="M1597.33,910.828l0,180.483c0,36.066 -29.281,65.348 -65.347,65.348l-452.265,-0c-36.066,-0 -65.347,-29.282 -65.347,-65.348l0,-180.483c0,-36.066 29.281,-65.347 65.347,-65.347l452.265,0c36.066,0 65.347,29.281 65.347,65.347Z" style="fill:#0b66a9;"/><path d="M1415.84,934.357l-0,133.425c-0,14.319 -11.625,25.944 -25.944,25.944l-276.207,0c-14.319,0 -25.944,-11.625 -25.944,-25.944l-0,-133.425c-0,-14.318 11.625,-25.944 25.944,-25.944l276.207,0c14.319,0 25.944,11.626 25.944,25.944Z" style="fill:#fff;"/><circle cx="1179.35" cy="1000" r="35.24" style="fill:#0b66a9;"/></g></g></g></g></svg>