<?xml version="1.0" encoding="UTF-8"?>
<svg id="Layer_1" xmlns="http://www.w3.org/2000/svg" version="1.1" viewBox="0 0 1417.4 1984.3">
  <!-- Generator: Adobe Illustrator 29.2.1, SVG Export Plug-In . SVG Version: 2.1.0 Build 116)  -->
    <style>
      .st0 {
        fill: #0074bd;
      }
    </style>
  <path class="st0" d="M130.3,1573.9l89.2-269.3c-131.1-207.1-117.7-477.1,32.3-670.3,202.5-260.7,583.8-301.2,836.4-87,277.5,235.3,273.7,665.2-7.2,896-192,157.8-470.4,176-680.5,41.7l-266.3,88.5-3.9.4ZM699.3,472.2c-405.3,11.3-641.1,455.3-425.4,800.2,2.7,4.3,14.8,20.4,14.8,23.6l-58.4,176.8,1.3,2.2,177.8-59.3c146.3,104.1,338.1,125.7,504.2,55.9,238.7-100.3,367.4-362.3,300.4-614.2-61.1-229.8-275.6-391.9-514.6-385.2h0Z"/>
  <path class="st0" d="M270.4,1434.7l41.5-126.9c8.7-19.2-3.5-28.8-12.8-43.4-83.6-131.6-106.4-287.8-53.5-436.5,106.2-298.1,459.8-423.7,730.1-253.6,260.5,164,308.3,528.3,98,754.4-164.2,176.6-423.1,207.2-627.7,80.5-14.3-8.9-28.4-24.8-46.4-17.4l-129.4,42.9h0ZM787.8,744.5l-164.5,184.2-191.1-215.9h-50.4v566.3h77.8v-396.4l163.8,183.3c1.5.3,13.2-13,15.2-15.3,50.4-55.2,99.1-112,149.2-167.5v-138.7h0ZM1029.7,712.9h-77.3c0,0-1.4,1.3-1.4,1.4v396l-162.8-184.3c-1.2-.3-11.5,11.3-13.3,13.4-50.9,56-100.2,113.5-151.2,169.4v138.7l165.1-184.3,1.4,2.9,188.2,213.1h51.3v-566.3Z"/>
  <rect x="-1948.2" y="109.3" width="907.2" height="654.2"/>
</svg>