<svg id="Layer_1" enable-background="new 0 0 512 512" viewBox="0 0 562.99 562.79" xmlns="http://www.w3.org/2000/svg" width="100%" height="100%" version="1.1" xmlns:xlink="http://www.w3.org/1999/xlink">
    <g>
        <circle cx="281.44" cy="281.44" r="239.4" fill="#0b66a9" />
        
        <g transform="translate(25, 25)">
            <g id="XMLID_1_" fill="#fffffe">
                <path d="m365.1 115.9v255.2h-18.3v-191.2c0-.3-.1-.7-.1-1-.1-.5-.4-1-.8-1.4l-42.3-42.3c-.7-.6-1.5-1-2.4-1h-.1-88.3-31.2-9.6v-18.3z" />
                <path d="m335.3 176.5h-30.9v-30.9z" />
                <path d="m209.4 140.9v24.4l-10.4-6.8c-1.2-.8-2.6-.8-3.7 0l-10.4 6.9v-24.5z" />
                <path d="m340 374.4v21.6l-.1.1h-192c-.6 0-1-.5-1-1l.1-254.2h21c.2.1.5.1.7.1s.5 0 .7-.1h8.9v30.7c0 1.2.7 2.3 1.8 2.9.5.3 1 .4 1.6.4.7 0 1.3-.2 1.8-.6l13.8-9.1 13.7 9.1c1 .7 2.3.8 3.4.1 1.1-.5 1.8-1.7 1.8-2.9v-30.7h81.6v35.8c0 3.5 2.9 6.5 6.5 6.5h35.7zm-22.3-168c0-1.8-1.5-3.3-3.3-3.3h-117.2c-1.8 0-3.3 1.5-3.3 3.3s1.5 3.3 3.3 3.3h117.2c1.8 0 3.3-1.5 3.3-3.3zm0 33.2c0-1.8-1.5-3.3-3.3-3.3h-117.2c-1.8 0-3.3 1.5-3.3 3.3s1.5 3.3 3.3 3.3h117.2c1.8.1 3.3-1.4 3.3-3.3zm0 33.4c0-1.8-1.5-3.3-3.3-3.3h-117.2c-1.8 0-3.3 1.5-3.3 3.3s1.5 3.3 3.3 3.3h117.2c1.8 0 3.3-1.5 3.3-3.3zm0 33.3c0-1.8-1.5-3.3-3.3-3.3h-117.2c-1.8 0-3.3 1.5-3.3 3.3s1.5 3.3 3.3 3.3h117.2c1.8.1 3.3-1.4 3.3-3.3zm0 33.3c0-1.8-1.5-3.3-3.3-3.3h-117.2c-1.8 0-3.3 1.5-3.3 3.3s1.5 3.3 3.3 3.3h117.2c1.8.1 3.3-1.4 3.3-3.3zm0 33.3c0-1.8-1.5-3.3-3.3-3.3h-117.2c-1.8 0-3.3 1.5-3.3 3.3s1.5 3.3 3.3 3.3h117.2c1.8.1 3.3-1.4 3.3-3.3zm-134.9-166.5c0-1.8-1.5-3.3-3.3-3.3h-6.9c-1.8 0-3.3 1.5-3.3 3.3s1.5 3.3 3.3 3.3h6.9c1.8 0 3.3-1.5 3.3-3.3zm0 33.2c0-1.8-1.5-3.3-3.3-3.3h-6.9c-1.8 0-3.3 1.5-3.3 3.3s1.5 3.3 3.3 3.3h6.9c1.8.1 3.3-1.4 3.3-3.3zm0 33.4c0-1.8-1.5-3.3-3.3-3.3h-6.9c-1.8 0-3.3 1.5-3.3 3.3s1.5 3.3 3.3 3.3h6.9c1.8 0 3.3-1.5 3.3-3.3zm0 33.3c0-1.8-1.5-3.3-3.3-3.3h-6.9c-1.8 0-3.3 1.5-3.3 3.3s1.5 3.3 3.3 3.3h6.9c1.8.1 3.3-1.4 3.3-3.3zm0 33.3c0-1.8-1.5-3.3-3.3-3.3h-6.9c-1.8 0-3.3 1.5-3.3 3.3s1.5 3.3 3.3 3.3h6.9c1.8.1 3.3-1.4 3.3-3.3zm0 33.3c0-1.8-1.5-3.3-3.3-3.3h-6.9c-1.8 0-3.3 1.5-3.3 3.3s1.5 3.3 3.3 3.3h6.9c1.8.1 3.3-1.4 3.3-3.3z" />
            </g>
        </g>
    </g>
</svg>